<svg width="342" height="215" viewBox="0 0 342 215" fill="none" xmlns="http://www.w3.org/2000/svg">
<mask id="mask0_40_2562" style="mask-type:alpha" maskUnits="userSpaceOnUse" x="0" y="0" width="342" height="215">
<rect width="342" height="215" fill="#FFF7D6"/>
</mask>
<g mask="url(#mask0_40_2562)">
<path d="M306.236 73.1752L274.212 76.4624L259.33 24.427L288.648 21.4175L306.236 73.1752Z" fill="white"/>
<path d="M274.212 76.4622L242.189 79.7494L230.012 27.4363L259.33 24.4268L274.212 76.4622Z" fill="#FFD783"/>
<path d="M242.189 79.7494L210.165 83.0366L200.694 30.4458L230.012 27.4363L242.189 79.7494Z" fill="white"/>
<path d="M210.165 83.0369L178.142 86.3241L171.376 33.4556L200.694 30.4461L210.165 83.0369Z" fill="#FFD783"/>
<path d="M178.142 86.324L146.118 89.6112L142.057 36.465L171.376 33.4555L178.142 86.324Z" fill="white"/>
<path d="M146.118 89.6109L114.094 92.8981L112.739 39.4742L142.057 36.4647L146.118 89.6109Z" fill="#FFD783"/>
<path d="M114.094 92.8982L82.0709 96.1854L83.366 42.4895L112.739 39.4743L114.094 92.8982Z" fill="white"/>
<path d="M82.0709 96.1854L50.0473 99.4725L54.0479 45.4989L83.366 42.4894L82.0709 96.1854Z" fill="#FFD783"/>
<path d="M50.0473 99.4725L18.0237 102.76L24.7298 48.5083L54.0479 45.4988L50.0473 99.4725Z" fill="white"/>
<path d="M125.544 112.032L32.2336 121.61L45.6091 251.913L138.919 242.335L125.544 112.032Z" fill="#A56CFF"/>
<path d="M124.421 145.122L110.452 146.556L111.115 153.016L125.084 151.582L124.421 145.122Z" fill="#C4A2FB"/>
<path d="M43.7579 142.02L34.4269 142.978L35.09 149.438L44.421 148.48L43.7579 142.02Z" fill="#C4A2FB"/>
<path d="M130.775 152.672L120.837 153.692L121.5 160.152L131.438 159.132L130.775 152.672Z" fill="#C4A2FB"/>
<path d="M126.096 111.975L32.2336 121.61L45.6091 251.913L139.471 242.278L126.096 111.975Z" stroke="#2D255E" stroke-width="3.48274" stroke-miterlimit="10" stroke-linecap="round" stroke-linejoin="round"/>
<path d="M108.053 118.291L50.6312 124.186L60.3794 219.152L117.801 213.258L108.053 118.291Z" fill="#C1E379"/>
<path d="M96.8167 209.944L75.6701 212.114C74.8419 212.199 74.1113 211.605 74.0263 210.777L73.9583 210.114C73.8733 209.286 74.4679 208.555 75.2961 208.47L96.4426 206.3C97.2708 206.215 98.0014 206.809 98.0864 207.637L98.1544 208.3C98.2947 209.122 97.6449 209.859 96.8167 209.944Z" fill="#B5E450"/>
<path d="M90.7306 209.899L81.7308 210.823L82.3996 217.338L91.3993 216.414L90.7306 209.899Z" fill="#B5E450"/>
<path d="M107.373 214.942L102.956 215.395L100.813 194.525C100.689 193.31 101.581 192.214 102.795 192.089C104.01 191.965 105.106 192.857 105.231 194.071L107.373 214.942Z" fill="#B5E450"/>
<path d="M71.4293 218.631L67.0122 219.085L64.8699 198.214C64.7452 196.999 65.637 195.904 66.8517 195.779C68.0664 195.654 69.1622 196.546 69.2869 197.761L71.4293 218.631Z" fill="#B5E450"/>
<path opacity="0.3" d="M115.703 213.473L117.495 210.276L113.386 170.247L87.71 216.346L115.703 213.473Z" fill="white"/>
<path opacity="0.3" d="M83.9002 216.737L112.836 164.891L111.907 155.836L77.6059 217.383L83.9002 216.737Z" fill="white"/>
<path opacity="0.3" d="M72.6368 217.894L111.181 148.769L110.717 144.241L69.4896 218.217L72.6368 217.894Z" fill="white"/>
<path d="M108.053 118.291L50.6312 124.186L60.3794 219.152L117.801 213.258L108.053 118.291Z" stroke="#2D255E" stroke-width="3.48274" stroke-miterlimit="10" stroke-linecap="round" stroke-linejoin="round"/>
<path d="M121.114 212.917L57.0667 219.492L57.7468 226.117L121.794 219.543L121.114 212.917Z" fill="#FFF7D6"/>
<path d="M121.114 212.917L57.0667 219.492L57.7468 226.117L121.794 219.543L121.114 212.917Z" stroke="#2D255E" stroke-width="3.48274" stroke-miterlimit="10" stroke-linecap="round" stroke-linejoin="round"/>
<path d="M219.049 267.607L202.465 106.054L126.271 113.875L142.855 275.428L219.049 267.607Z" fill="#FFF7D6"/>
<path d="M219.049 267.607L202.465 106.054L126.271 113.875L142.855 275.428L219.049 267.607Z" stroke="#2D255E" stroke-width="3.48274" stroke-miterlimit="10" stroke-linecap="round" stroke-linejoin="round"/>
<path d="M195.13 115.937L135.5 122.058L146.988 233.974L206.618 227.854L195.13 115.937Z" fill="#C1E379"/>
<path opacity="0.3" d="M207.227 228.349L201.763 175.124L176.528 231.5L207.227 228.349Z" fill="white"/>
<path opacity="0.3" d="M172.828 231.322L200.611 169.328L198.729 150.997L162.282 232.405L172.828 231.322Z" fill="white"/>
<path opacity="0.3" d="M157.368 232.909L197.856 142.494L197.244 136.531L153.945 233.26L157.368 232.909Z" fill="white"/>
<path d="M195.13 115.937L135.5 122.058L146.988 233.974L206.618 227.854L195.13 115.937Z" stroke="#2D255E" stroke-width="3.48274" stroke-miterlimit="10" stroke-linecap="round" stroke-linejoin="round"/>
<path d="M215.926 234.478L309.236 224.9L295.86 94.5969L202.55 104.175L215.926 234.478Z" fill="#A56CFF"/>
<path d="M300.262 212.829L286.293 214.263L286.956 220.723L300.925 219.289L300.262 212.829Z" fill="#C4A2FB"/>
<path d="M291.036 205.574L277.067 207.008L277.731 213.468L291.699 212.034L291.036 205.574Z" fill="#C4A2FB"/>
<path d="M222.69 120.807L214.132 121.686L214.796 128.146L223.354 127.267L222.69 120.807Z" fill="#C4A2FB"/>
<path d="M218.848 184.473L210.29 185.351L210.953 191.811L219.511 190.933L218.848 184.473Z" fill="#C4A2FB"/>
<path d="M215.374 234.534L309.236 224.9L295.86 94.5968L201.998 104.232L215.374 234.534Z" stroke="#2D255E" stroke-width="3.48274" stroke-miterlimit="10" stroke-linecap="round" stroke-linejoin="round"/>
<path d="M278.33 100.812L220.908 106.707L230.657 201.673L288.078 195.779L278.33 100.812Z" fill="#C1E379"/>
<path d="M250.53 194.165L271.677 191.995C272.505 191.91 273.099 191.179 273.014 190.351L272.946 189.688C272.861 188.86 272.131 188.266 271.302 188.351L250.156 190.521C249.328 190.606 248.733 191.337 248.818 192.165L248.886 192.828C248.971 193.656 249.702 194.25 250.53 194.165Z" fill="#B5E450"/>
<path d="M257.222 199.406L266.222 198.482L265.553 191.967L256.553 192.89L257.222 199.406Z" fill="#B5E450"/>
<path d="M241.265 201.198L245.682 200.745L243.539 179.874C243.415 178.659 242.319 177.768 241.104 177.892C239.889 178.017 238.998 179.113 239.122 180.327L241.265 201.198Z" fill="#B5E450"/>
<path d="M277.153 197.514L281.57 197.061L279.428 176.19C279.303 174.975 278.207 174.084 276.992 174.208C275.778 174.333 274.886 175.429 275.011 176.644L277.153 197.514Z" fill="#B5E450"/>
<path opacity="0.3" d="M286.035 195.989L287.772 192.798L283.663 152.768L257.987 198.868L286.035 195.989Z" fill="white"/>
<path opacity="0.3" d="M254.232 199.253L283.113 147.412L282.184 138.357L247.883 199.905L254.232 199.253Z" fill="white"/>
<path opacity="0.3" d="M242.914 200.415L281.458 131.29L280.994 126.763L239.767 200.738L242.914 200.415Z" fill="white"/>
<path d="M278.33 100.812L220.908 106.707L230.657 201.673L288.078 195.779L278.33 100.812Z" stroke="#2D255E" stroke-width="3.48274" stroke-miterlimit="10" stroke-linecap="round" stroke-linejoin="round"/>
<path opacity="0.18" d="M291.844 199.856L227.797 206.43L228.143 209.798L292.19 203.224L291.844 199.856Z" fill="#282828" stroke="#282828" stroke-width="3.48274" stroke-miterlimit="10" stroke-linecap="round" stroke-linejoin="round"/>
<path d="M228.06 208.643L292.107 202.069L291.427 195.443L227.379 202.018L228.06 208.643Z" fill="#FFF7D6"/>
<path d="M228.06 208.643L292.107 202.069L291.427 195.443L227.379 202.018L228.06 208.643Z" stroke="#2D255E" stroke-width="3.48274" stroke-miterlimit="10" stroke-linecap="round" stroke-linejoin="round"/>
<path d="M154.259 199.361C152.879 199.502 151.661 198.511 151.52 197.131L148.782 170.463C148.64 169.083 149.631 167.865 151.012 167.723C152.392 167.582 153.61 168.573 153.751 169.953L156.489 196.621C156.63 198.001 155.639 199.219 154.259 199.361Z" fill="#2D255E"/>
<path opacity="0.18" d="M274.552 79.7751L242.529 83.0623L210.505 86.3494L178.482 89.6366L146.458 92.9238L114.434 96.211L82.4109 99.4982L50.3873 102.785L30.5106 104.826L33.9735 138.561C35.2222 138.767 36.5643 138.797 37.8894 138.661C46.7235 137.754 53.1644 129.84 52.2576 121.006C53.1644 129.84 61.0789 136.281 69.913 135.374C78.7471 134.467 85.188 126.553 84.2812 117.718C85.188 126.553 93.1025 132.993 101.937 132.087C110.771 131.18 117.212 123.265 116.305 114.431C117.212 123.265 125.126 129.706 133.96 128.799C142.794 127.893 149.235 119.978 148.328 111.144C149.235 119.978 157.15 126.419 165.984 125.512C174.818 124.605 181.259 116.691 180.352 107.857C181.259 116.691 189.173 123.132 198.007 122.225C206.841 121.318 213.282 113.404 212.375 104.57C213.282 113.404 221.197 119.845 230.031 118.938C238.865 118.031 245.306 110.117 244.399 101.283C245.306 110.117 253.22 116.558 262.054 115.651C270.888 114.744 277.329 106.829 276.423 97.9954C277.329 106.829 285.244 113.27 294.078 112.364C295.293 112.239 296.49 111.949 297.572 111.614L294.098 77.7688L274.552 79.7751Z" fill="#282828" stroke="#282828" stroke-width="3.48274" stroke-miterlimit="10" stroke-linecap="round" stroke-linejoin="round"/>
<path d="M261.714 112.338C252.88 113.245 244.966 106.804 244.059 97.9696L242.189 79.7493L274.212 76.4621L276.083 94.6824C276.989 103.516 270.548 111.431 261.714 112.338Z" fill="#E7A825"/>
<path d="M229.691 115.625C220.857 116.532 212.942 110.091 212.035 101.257L210.165 83.0366L242.189 79.7494L244.059 97.9697C244.966 106.804 238.525 114.718 229.691 115.625Z" fill="#D6D6D6"/>
<path d="M197.667 118.912C188.833 119.819 180.919 113.378 180.012 104.544L178.142 86.3237L210.165 83.0365L212.035 101.257C212.942 110.091 206.501 118.005 197.667 118.912Z" fill="#E7A825"/>
<path d="M165.644 122.199C156.81 123.106 148.895 116.665 147.988 107.831L146.118 89.6108L178.142 86.3237L180.012 104.544C180.919 113.378 174.478 121.293 165.644 122.199Z" fill="#D6D6D6"/>
<path d="M133.62 125.487C124.786 126.394 116.872 119.953 115.965 111.118L114.094 92.8982L146.118 89.611L147.988 107.831C148.895 116.665 142.454 124.58 133.62 125.487Z" fill="#E7A825"/>
<path d="M101.597 128.774C92.7625 129.681 84.848 123.24 83.9412 114.406L82.0709 96.1853L114.094 92.8981L115.965 111.118C116.872 119.953 110.431 127.867 101.597 128.774Z" fill="#D6D6D6"/>
<path d="M69.573 132.061C60.7389 132.968 52.8245 126.527 51.9177 117.693L50.0474 99.4724L82.0709 96.1852L83.9412 114.406C84.848 123.24 78.4071 131.154 69.573 132.061Z" fill="#E7A825"/>
<path d="M37.5495 135.348C28.7154 136.255 20.8009 129.814 19.8941 120.98L18.0238 102.76L50.0474 99.4726L51.9177 117.693C52.8245 126.527 46.3836 134.441 37.5495 135.348Z" fill="#D6D6D6"/>
<path d="M261.714 112.338C252.88 113.245 244.966 106.804 244.059 97.9696L242.189 79.7493L274.212 76.4621L276.083 94.6824C276.989 103.516 270.548 111.431 261.714 112.338Z" stroke="#2D255E" stroke-width="3.48274" stroke-miterlimit="10" stroke-linecap="round" stroke-linejoin="round"/>
<path d="M229.691 115.625C220.857 116.532 212.942 110.091 212.035 101.257L210.165 83.0366L242.189 79.7494L244.059 97.9697C244.966 106.804 238.525 114.718 229.691 115.625Z" stroke="#2D255E" stroke-width="3.48274" stroke-miterlimit="10" stroke-linecap="round" stroke-linejoin="round"/>
<path d="M197.667 118.912C188.833 119.819 180.919 113.378 180.012 104.544L178.142 86.3237L210.165 83.0365L212.035 101.257C212.942 110.091 206.501 118.005 197.667 118.912Z" stroke="#2D255E" stroke-width="3.48274" stroke-miterlimit="10" stroke-linecap="round" stroke-linejoin="round"/>
<path d="M165.644 122.199C156.81 123.106 148.895 116.665 147.988 107.831L146.118 89.6108L178.142 86.3237L180.012 104.544C180.919 113.378 174.478 121.293 165.644 122.199Z" stroke="#2D255E" stroke-width="3.48274" stroke-miterlimit="10" stroke-linecap="round" stroke-linejoin="round"/>
<path d="M133.62 125.487C124.786 126.394 116.872 119.953 115.965 111.118L114.094 92.8982L146.118 89.611L147.988 107.831C148.895 116.665 142.454 124.58 133.62 125.487Z" stroke="#2D255E" stroke-width="3.48274" stroke-miterlimit="10" stroke-linecap="round" stroke-linejoin="round"/>
<path d="M101.597 128.774C92.7625 129.681 84.848 123.24 83.9412 114.406L82.0709 96.1853L114.094 92.8981L115.965 111.118C116.872 119.953 110.431 127.867 101.597 128.774Z" stroke="#2D255E" stroke-width="3.48274" stroke-miterlimit="10" stroke-linecap="round" stroke-linejoin="round"/>
<path d="M69.573 132.061C60.7389 132.968 52.8245 126.527 51.9177 117.693L50.0474 99.4724L82.0709 96.1852L83.9412 114.406C84.848 123.24 78.4071 131.154 69.573 132.061Z" stroke="#2D255E" stroke-width="3.48274" stroke-miterlimit="10" stroke-linecap="round" stroke-linejoin="round"/>
<path d="M37.5495 135.348C28.7154 136.255 20.8009 129.814 19.8941 120.98L18.0238 102.76L50.0474 99.4726L51.9177 117.693C52.8245 126.527 46.3836 134.441 37.5495 135.348Z" stroke="#2D255E" stroke-width="3.48274" stroke-miterlimit="10" stroke-linecap="round" stroke-linejoin="round"/>
<path d="M306.236 73.1752L274.212 76.4624L259.33 24.427L288.648 21.4175L306.236 73.1752Z" stroke="#2D255E" stroke-width="3.48274" stroke-miterlimit="10" stroke-linecap="round" stroke-linejoin="round"/>
<path d="M274.212 76.4622L242.189 79.7494L230.012 27.4363L259.33 24.4268L274.212 76.4622Z" stroke="#2D255E" stroke-width="3.48274" stroke-miterlimit="10" stroke-linecap="round" stroke-linejoin="round"/>
<path d="M242.189 79.7494L210.165 83.0366L200.694 30.4458L230.012 27.4363L242.189 79.7494Z" stroke="#2D255E" stroke-width="3.48274" stroke-miterlimit="10" stroke-linecap="round" stroke-linejoin="round"/>
<path d="M210.165 83.0369L178.142 86.3241L171.376 33.4556L200.694 30.4461L210.165 83.0369Z" stroke="#2D255E" stroke-width="3.48274" stroke-miterlimit="10" stroke-linecap="round" stroke-linejoin="round"/>
<path d="M178.142 86.324L146.118 89.6112L142.057 36.465L171.376 33.4555L178.142 86.324Z" stroke="#2D255E" stroke-width="3.48274" stroke-miterlimit="10" stroke-linecap="round" stroke-linejoin="round"/>
<path d="M146.118 89.6109L114.094 92.8981L112.739 39.4742L142.057 36.4647L146.118 89.6109Z" stroke="#2D255E" stroke-width="3.48274" stroke-miterlimit="10" stroke-linecap="round" stroke-linejoin="round"/>
<path d="M114.094 92.8983L82.0709 96.1854L83.366 42.4895L112.739 39.4743L114.094 92.8983Z" stroke="#2D255E" stroke-width="3.48274" stroke-miterlimit="10" stroke-linecap="round" stroke-linejoin="round"/>
<path d="M82.0709 96.1854L50.0473 99.4725L54.0479 45.4989L83.366 42.4894L82.0709 96.1854Z" stroke="#2D255E" stroke-width="3.48274" stroke-miterlimit="10" stroke-linecap="round" stroke-linejoin="round"/>
<path d="M50.0473 99.4725L18.0237 102.76L24.7298 48.5083L54.0479 45.4988L50.0473 99.4725Z" stroke="#2D255E" stroke-width="3.48274" stroke-miterlimit="10" stroke-linecap="round" stroke-linejoin="round"/>
<path d="M287.628 11.4791L23.7096 38.5701L24.7298 48.5084L288.648 21.4175L287.628 11.4791Z" fill="#EDE2FF"/>
<path d="M287.628 11.4791L23.7096 38.5701L24.061 41.9933L287.979 14.9023L287.628 11.4791Z" fill="#A56CFF"/>
<path d="M287.628 11.4791L23.7096 38.5701L24.7298 48.5084L288.648 21.4175L287.628 11.4791Z" stroke="#2D255E" stroke-width="3.48274" stroke-miterlimit="10" stroke-linecap="round" stroke-linejoin="round"/>
<path d="M185.682 152.975L157.157 162.167L161.464 175.532L189.989 166.34L185.682 152.975Z" fill="#E8E8E8"/>
<path d="M185.682 152.975L157.157 162.167L161.464 175.532L189.989 166.34L185.682 152.975Z" stroke="#2D255E" stroke-width="1.74137" stroke-miterlimit="10" stroke-linecap="round" stroke-linejoin="round"/>
<path d="M164.026 164.602L181.579 158.951C182.28 158.711 182.988 159.085 183.227 159.786L184.035 162.214C184.274 162.914 183.9 163.622 183.199 163.862L165.646 169.513C164.946 169.753 164.238 169.379 163.998 168.678L163.191 166.25C162.952 165.549 163.325 164.841 164.026 164.602Z" fill="#D3D3D3"/>
<path d="M165.988 158.71L169.193 144.823L175.886 155.127" stroke="#2D255E" stroke-width="1.16091" stroke-miterlimit="10" stroke-linecap="round" stroke-linejoin="round"/>
<path d="M169.437 147.197C170.351 147.103 171.017 146.285 170.923 145.37C170.83 144.455 170.011 143.79 169.097 143.884C168.182 143.978 167.517 144.795 167.611 145.71C167.705 146.625 168.522 147.291 169.437 147.197Z" fill="#2D255E"/>
<path d="M293.738 109.051C284.904 109.957 276.989 103.517 276.083 94.6825L274.212 76.4622L306.236 73.175L308.106 91.3953C309.013 100.229 302.572 108.144 293.738 109.051Z" fill="#D6D6D6"/>
<path d="M293.738 109.051C284.904 109.957 276.989 103.517 276.083 94.6825L274.212 76.4622L306.236 73.175L308.106 91.3953C309.013 100.229 302.572 108.144 293.738 109.051Z" stroke="#2D255E" stroke-width="3.48274" stroke-miterlimit="10" stroke-linecap="round" stroke-linejoin="round"/>
<path d="M321.21 170.673L300.229 172.827L309.013 258.407L329.994 256.254L321.21 170.673Z" fill="#D6D6D6"/>
<path d="M315.523 171.257L304.867 172.351L313.651 257.932L324.307 256.838L315.523 171.257Z" fill="white"/>
<path d="M321.21 170.673L300.229 172.827L309.013 258.407L329.994 256.254L321.21 170.673Z" stroke="#2D255E" stroke-width="3.48274" stroke-miterlimit="10" stroke-linecap="round" stroke-linejoin="round"/>
<path d="M313.063 183.171L310.247 183.46C308.757 183.613 307.478 182.573 307.325 181.082L306.537 173.407L314.654 172.574L315.441 180.249C315.589 181.684 314.499 183.024 313.063 183.171Z" fill="#2D255E"/>
</g>
</svg>
