<svg width="84" height="85" viewBox="0 0 84 85" fill="none" xmlns="http://www.w3.org/2000/svg">
<circle cx="55.9995" cy="28" r="28" fill="#FFFBD6"/>
<path d="M35.6426 15.0009C16.4155 15.0009 0.772461 28.0361 0.772461 44.0589V46.3838C0.772461 47.0259 1.29299 47.5459 1.93463 47.5459C2.57677 47.5459 3.09729 47.0259 3.09729 46.3838V44.5239C5.93049 41.8849 9.6875 40.4653 13.5583 40.5719C17.4297 40.4518 21.191 41.8698 24.0194 44.5157V46.3838C24.0194 47.0259 24.5394 47.5459 25.1816 47.5459C25.8237 47.5459 26.3437 47.0259 26.3437 46.3838V44.4821C28.4686 42.2103 31.3768 40.8297 34.4804 40.6195V49.9184C32.8581 50.0628 31.2649 50.4384 29.7486 51.0329C29.3492 51.2168 29.0276 51.5364 28.8413 51.9348C28.6555 52.3332 28.6161 52.7846 28.7313 53.2088L29.6936 56.8446H28.6686C28.131 56.8553 27.6708 57.2328 27.556 57.7582C27.4407 58.2836 27.701 58.8187 28.185 59.0531C24.8989 61.9404 21.6946 66.7359 21.6946 71.706C21.6946 78.8941 27.9515 84.74 35.6427 84.74C43.3338 84.74 49.5907 78.8936 49.5907 71.706C49.5907 66.7358 46.3864 61.9426 43.1003 59.0569C43.5896 58.8258 43.8548 58.2868 43.739 57.758C43.6232 57.2292 43.1581 56.8502 42.6167 56.8439H41.5917L42.5588 53.193C42.6688 52.7668 42.624 52.3149 42.4328 51.9185C42.2411 51.522 41.9152 51.2063 41.5124 51.0278C40.0034 50.4381 38.4184 50.0665 36.8048 49.9235V40.6246C39.908 40.8352 42.8162 42.2153 44.9415 44.4862V46.3829C44.9415 47.025 45.4616 47.5451 46.1037 47.5451C46.7458 47.5451 47.2659 47.025 47.2659 46.3829V44.5231C50.0991 41.884 53.8566 40.4644 57.7269 40.571C61.5983 40.4509 65.3596 41.869 68.188 44.5149V46.3829C68.188 47.025 68.7085 47.5451 69.3506 47.5451C69.9923 47.5451 70.5128 47.025 70.5128 46.3829V44.0581C70.5128 28.0352 54.8698 15 35.6426 15L35.6426 15.0009ZM3.2607 41.3714C4.70744 29.5224 15.6151 19.9325 29.6649 17.7805C24.6503 23.3214 24.0112 35.9591 23.9834 41.4748V41.4743C20.9396 39.3173 17.2871 38.1872 13.5574 38.2481C9.88354 38.1921 6.28369 39.2838 3.2602 41.3712L3.2607 41.3714ZM47.2656 71.7072C47.2656 77.612 42.0516 82.4169 35.6424 82.4169C29.2331 82.4169 24.0192 77.6115 24.0192 71.7072C24.0192 66.3254 28.6499 60.9787 31.9915 59.1702H39.2934C42.635 60.9784 47.2657 66.3251 47.2657 71.7072H47.2656ZM39.1863 56.8451H32.096L31.0812 53.0199C32.5465 52.498 34.0871 52.2197 35.6423 52.1959C37.1965 52.2197 38.7368 52.4984 40.201 53.0199L39.1863 56.8451ZM35.6424 38.2481C32.2702 38.2087 28.984 39.3105 26.3167 41.3745C26.362 36.0078 26.9885 23.9121 31.5473 19.166C32.5893 17.9955 34.0813 17.3262 35.6482 17.3262C37.2151 17.3262 38.7071 17.9956 39.7492 19.166C44.3021 23.9119 44.9287 36.0083 44.9797 41.3745C42.3096 39.308 39.0186 38.2057 35.6424 38.2481ZM57.7264 38.2481C53.9967 38.1873 50.3443 39.3173 47.3004 41.4743C47.2726 35.9592 46.6334 23.3206 41.6189 17.78C55.6691 19.9316 66.5772 29.5196 68.0231 41.3747V41.3752C65.0002 39.2863 61.4002 38.1931 57.7259 38.2477L57.7264 38.2481Z" fill="#333333"/>
<path d="M39.4631 69.6558H31.5369C31.2404 69.6558 31 69.4029 31 69.0911C31 68.7792 31.2404 68.5263 31.5369 68.5263H39.4631C39.7596 68.5263 40 68.7792 40 69.0911C40 69.4029 39.7596 69.6558 39.4631 69.6558Z" fill="#333333"/>
<path d="M39.4631 71.7611H31.5369C31.2404 71.7611 31 71.5082 31 71.1963C31 70.8844 31.2404 70.6316 31.5369 70.6316H39.4631C39.7596 70.6316 40 70.8844 40 71.1963C40 71.5082 39.7596 71.7611 39.4631 71.7611Z" fill="#333333"/>
<path d="M37.5266 74C37.9011 74 38.2047 73.6806 38.2047 73.2867V66.5308C38.2047 66.2377 37.9788 66 37.7001 66C37.4214 66 37.1955 66.2377 37.1955 66.5308V72.1382L33.8048 66.4292C33.6462 66.1622 33.368 66 33.0687 66C32.5894 66 32.2008 66.4088 32.2008 66.913V73.4692C32.2008 73.7623 32.4267 74 32.7054 74C32.9841 74 33.21 73.7623 33.21 73.4692V67.4781L36.9544 73.6696C37.0789 73.8754 37.2947 74 37.5266 74Z" fill="#333333"/>
</svg>
