<svg width="90" height="85" viewBox="0 0 90 85" fill="none" xmlns="http://www.w3.org/2000/svg">
<circle cx="61.624" cy="28" r="28" fill="#FFFBD6"/>
<path d="M30.9552 13.3657L30.9553 11.6157H30.9552V13.3657ZM59.5355 41.9459H61.2855V41.9458L59.5355 41.9459ZM53.5151 62.0382C52.8317 61.3547 51.7237 61.3547 51.0402 62.0382C50.3568 62.7216 50.3568 63.8296 51.0402 64.513L53.5151 62.0382ZM71.0004 84.4732C71.6838 85.1566 72.7918 85.1566 73.4752 84.4732C74.1586 83.7897 74.1586 82.6817 73.4752 81.9983L71.0004 84.4732ZM30.9552 11.6157C24.9565 11.6157 19.0924 13.3946 14.1047 16.7273L16.0492 19.6374C20.4614 16.6893 25.6487 15.1157 30.9552 15.1157V11.6157ZM14.1047 16.7273C9.11689 20.06 5.22939 24.7969 2.93376 30.3391L6.16734 31.6785C8.19806 26.7759 11.637 22.5856 16.0492 19.6374L14.1047 16.7273ZM2.93376 30.3391C0.638141 35.8812 0.0375013 41.9796 1.2078 47.8631L4.64055 47.1803C3.6053 41.9757 4.13663 36.581 6.16734 31.6785L2.93376 30.3391ZM1.2078 47.8631C2.3781 53.7466 5.26677 59.1509 9.50853 63.3927L11.9834 60.9178C8.23113 57.1655 5.6758 52.3848 4.64055 47.1803L1.2078 47.8631ZM9.50853 63.3927C13.7503 67.6344 19.1546 70.5231 25.0381 71.6934L25.7209 68.2606C20.5164 67.2254 15.7357 64.6701 11.9834 60.9178L9.50853 63.3927ZM25.0381 71.6934C30.9216 72.8637 37.02 72.263 42.5621 69.9674L41.2227 66.7338C36.3201 68.7645 30.9255 69.2959 25.7209 68.2606L25.0381 71.6934ZM42.5621 69.9674C48.1042 67.6718 52.8412 63.7843 56.1739 58.7965L53.2637 56.852C50.3156 61.2642 46.1253 64.7031 41.2227 66.7338L42.5621 69.9674ZM56.1739 58.7965C59.5066 53.8087 61.2855 47.9447 61.2855 41.9459H57.7855C57.7855 47.2525 56.2119 52.4398 53.2637 56.852L56.1739 58.7965ZM61.2855 41.9458C61.2849 33.9019 58.0893 26.1877 52.4014 20.4998L49.9265 22.9746C54.9581 28.0062 57.785 34.8303 57.7855 41.9461L61.2855 41.9458ZM52.4014 20.4998C46.7135 14.8119 38.9992 11.6162 30.9553 11.6157L30.9551 15.1157C38.0708 15.1162 44.895 17.9431 49.9265 22.9746L52.4014 20.4998ZM51.0402 64.513L71.0004 84.4732L73.4752 81.9983L53.5151 62.0382L51.0402 64.513Z" fill="#333333"/>
<path d="M41.5621 42.4324H21.8732C21.1367 42.4324 20.5396 41.765 20.5396 40.9419C20.5396 40.1187 21.1367 39.4513 21.8732 39.4513H41.5621C42.2986 39.4513 42.8958 40.1187 42.8958 40.9419C42.8958 41.765 42.2986 42.4324 41.5621 42.4324Z" fill="#333333"/>
<path d="M41.5621 47.9888H21.8732C21.1367 47.9888 20.5396 47.3214 20.5396 46.4982C20.5396 45.6751 21.1367 45.0076 21.8732 45.0076H41.5621C42.2986 45.0076 42.8958 45.6751 42.8958 46.4982C42.8958 47.3214 42.2986 47.9888 41.5621 47.9888Z" fill="#333333"/>
<path d="M36.7518 53.8979C37.6821 53.8979 38.4362 53.055 38.4362 52.0152V34.1847C38.4362 33.4109 37.875 32.7837 37.1827 32.7837C36.4905 32.7837 35.9293 33.4109 35.9293 34.1847V48.9842L27.5068 33.9166C27.1128 33.2118 26.4218 32.7837 25.6783 32.7837C24.4876 32.7837 23.5223 33.8626 23.5223 35.1934V52.4969C23.5223 53.2706 24.0835 53.8979 24.7758 53.8979C25.4681 53.8979 26.0293 53.2706 26.0293 52.4969V36.6849L35.3305 53.0258C35.6397 53.5689 36.1758 53.8979 36.7518 53.8979Z" fill="#333333"/>
</svg>
