<svg width="378" height="254" viewBox="0 0 378 254" fill="none" xmlns="http://www.w3.org/2000/svg">
<mask id="mask0_438_1179" style="mask-type:alpha" maskUnits="userSpaceOnUse" x="0" y="0" width="378" height="254">
<rect width="378" height="254" fill="#FFEFFD"/>
</mask>
<g mask="url(#mask0_438_1179)">
<path d="M214.714 81.5634L25.3339 124.005C19.5852 125.293 15.5676 130.364 16.3602 135.33L22.8355 175.903C23.6281 180.869 28.9308 183.851 34.6794 182.563L224.059 140.121C229.808 138.833 233.825 133.762 233.033 128.796L226.558 88.223C225.765 83.2567 220.463 80.275 214.714 81.5634Z" fill="#EFFFCD"/>
<path d="M230.996 121.008L233.913 138.032C234.22 139.825 229.991 142.215 224.5 143.365L36.2336 182.805C30.7262 183.958 26.0162 183.441 25.7089 181.648L24.0205 171.794C37.1773 171.848 51.9412 170.651 66.9568 168.682C85.1024 166.303 103.631 162.837 122.024 159.045C144.017 154.513 166.29 149.401 186.568 142.659C205.152 136.49 222.037 128.747 230.996 121.008Z" fill="#B5E450"/>
<path d="M90.5398 104.177C71.0226 109.588 43.4825 114.469 27.1562 122.289C19.4183 125.991 18.0451 130.208 17.2633 133.617L15.8447 124.86C15.6602 123.738 15.5738 122.491 17.5708 121.167C20.0421 119.533 24.6769 118.438 28.7697 117.55C48.8639 113.176 70.7079 107.648 90.5398 104.177Z" fill="white"/>
<path d="M214.535 81.6808L25.1546 124.122C19.406 125.411 15.3884 130.481 16.181 135.447L22.6563 176.021C23.4489 180.987 28.7516 183.969 34.5002 182.68L223.88 140.239C229.629 138.95 233.646 133.88 232.854 128.914L226.378 88.3404C225.586 83.3741 220.283 80.3926 214.535 81.6808Z" stroke="#314E5D" stroke-width="3.29403" stroke-miterlimit="10"/>
<path d="M327.698 167.561L111.59 215.619C105.851 216.895 101.841 221.917 102.632 226.836L109.099 267.024C109.89 271.943 115.184 274.897 120.923 273.62L337.031 225.563C342.769 224.287 346.78 219.264 345.989 214.345L339.522 174.157C338.731 169.238 333.437 166.285 327.698 167.561Z" fill="#A56CFF"/>
<path d="M342.896 201L345.812 217.874C346.12 219.652 341.332 222.137 335.121 223.428L122.719 267.565C116.508 268.856 111.223 268.464 110.916 266.686L109.228 256.919C124.012 256.633 140.629 255.058 157.542 252.71C177.962 249.877 198.874 245.943 219.626 241.691C244.428 236.612 269.575 230.944 292.503 223.707C313.528 217.082 332.667 208.937 342.896 201Z" fill="#DFCCFD"/>
<path d="M186.459 193.396C164.428 199.303 133.379 204.902 114.899 213.116C106.125 217.011 104.504 221.241 103.552 224.654L102.142 215.977C101.958 214.866 101.884 213.628 104.156 212.257C106.968 210.565 112.193 209.352 116.808 208.358C139.464 203.468 164.118 197.381 186.459 193.396Z" fill="#A56CFF"/>
<path d="M327.49 167.684L111.383 215.741C105.644 217.018 101.633 222.04 102.425 226.959L108.891 267.147C109.682 272.066 114.977 275.02 120.715 273.743L336.823 225.686C342.562 224.41 346.572 219.387 345.781 214.468L339.315 174.28C338.523 169.361 333.229 166.408 327.49 167.684Z" stroke="#314E5D" stroke-width="3.29403" stroke-miterlimit="10"/>
<path d="M281.504 46.6506L51.2381 100.561C47.5446 101.426 44.9627 104.83 45.4712 108.165L75.2937 303.697C75.8023 307.031 79.2088 309.034 82.9023 308.169L313.168 254.258C316.862 253.393 319.444 249.989 318.935 246.655L289.113 51.1224C288.604 47.788 285.198 45.7859 281.504 46.6506Z" fill="white"/>
<rect width="38.1687" height="6.93877" rx="3.46939" transform="matrix(0.973365 -0.20677 0.18229 0.977744 92.0979 156.793)" fill="#C45BB8"/>
<rect width="44.2376" height="6.89823" rx="3.44912" transform="matrix(0.973521 -0.205691 0.183251 0.977499 112.148 172.848)" fill="#A56CFF"/>
<rect width="48.7877" height="6.87279" rx="3.43639" transform="matrix(0.973625 -0.204975 0.183894 0.977335 165.37 162.383)" fill="#C8DD9D"/>
<rect width="33.616" height="6.97435" rx="3.48718" transform="matrix(0.973229 -0.207703 0.181468 0.977953 221.547 151.205)" fill="#A56CFF"/>
<rect width="29.0624" height="7.01486" rx="3.50743" transform="matrix(0.973077 -0.208737 0.180565 0.978182 229.586 129.614)" fill="#C8DD9D"/>
<rect width="29.0625" height="7.01499" rx="3.5075" transform="matrix(0.973076 -0.208741 0.180561 0.978183 225.659 188.655)" fill="#C8DD9D"/>
<rect width="86.7001" height="6.73143" rx="3.36572" transform="matrix(0.974182 -0.201039 0.187501 0.976404 136.449 148.263)" fill="#A56CFF"/>
<rect width="41.2032" height="6.91771" rx="3.45886" transform="matrix(0.973446 -0.206213 0.182785 0.977618 131.908 187.362)" fill="#C8DD9D"/>
<rect width="35.1336" height="6.96173" rx="3.48086" transform="matrix(0.973277 -0.207373 0.181758 0.97788 116.477 210.325)" fill="#5F6455"/>
<rect width="26.0257" height="7.04554" rx="3.52277" transform="matrix(0.972964 -0.209503 0.179901 0.978349 157.872 202.08)" fill="#5F6455"/>
<rect width="22.9886" height="7.07932" rx="3.53966" transform="matrix(0.972842 -0.210318 0.179201 0.978525 188.917 195.926)" fill="#C4C4C4"/>
<rect width="44.2376" height="6.89823" rx="3.44912" transform="matrix(0.973521 -0.205691 0.183251 0.977499 177.737 178.348)" fill="#C45BB8"/>
<path d="M291.274 55.2692L296 86.0251L51.1504 144L46.4243 113.244C45.6383 108.129 48.0088 103.262 51.7211 102.383L283.129 47.5913C286.841 46.7123 290.488 50.154 291.274 55.2692Z" fill="#D98FD1"/>
<path d="M281.217 46.3358L50.8909 100.266C47.1963 101.131 44.6137 104.536 45.1224 107.872L75.1814 304.974C75.6901 308.309 79.0974 310.312 82.7921 309.447L313.118 255.517C316.812 254.652 319.395 251.247 318.886 247.911L288.827 50.8091C288.318 47.4736 284.911 45.4708 281.217 46.3358Z" stroke="#314E5D" stroke-width="3.29403" stroke-miterlimit="10"/>
<path d="M71.8 123.159C74.7054 122.408 76.7347 119.474 76.3323 116.605C75.9299 113.736 73.2481 112.018 70.3428 112.769C67.4375 113.519 65.4081 116.454 65.8105 119.323C66.213 122.192 68.8947 123.909 71.8 123.159Z" fill="#EFFFCD"/>
<path d="M88.1848 119.788C91.0901 119.037 93.1195 116.103 92.717 113.234C92.3146 110.365 89.6329 108.647 86.7275 109.398C83.8222 110.148 81.7929 113.082 82.1953 115.951C82.5977 118.821 85.2795 120.538 88.1848 119.788Z" fill="#EFFFCD"/>
<path d="M104.57 116.417C107.475 115.666 109.504 112.732 109.102 109.863C108.7 106.994 106.018 105.277 103.112 106.027C100.207 106.777 98.1778 109.712 98.5802 112.581C98.9826 115.45 101.664 117.167 104.57 116.417Z" fill="#EFFFCD"/>
</g>
</svg>
