<svg width="78" height="83" viewBox="0 0 78 83" fill="none" xmlns="http://www.w3.org/2000/svg">
<circle cx="49.002" cy="28" r="28" fill="#FFFBD6"/>
<path d="M2.18015 50.9084C0.981189 50.9084 0 51.8896 0 53.0886V80.5599C0 81.7588 0.981151 82.74 2.18015 82.74H23.7645C24.9635 82.74 25.9447 81.7589 25.9447 80.5599V78.5976H39.6803C40.0075 78.5976 40.2253 78.4887 40.4432 78.2704L50.3631 68.3504C50.5809 68.1326 50.6903 67.9143 50.6903 67.6965V67.5876V39.7887C54.1788 39.1348 55.705 36.0824 55.8139 33.4662C55.8139 30.85 54.3967 27.9065 51.0176 27.0343C52.871 16.2421 38.9169 10.1368 32.1582 18.2043C25.6174 7.62992 8.17513 14.498 11.4462 26.9253C8.50275 27.5793 6.21365 30.1955 6.21365 33.3572C6.21365 36.9546 9.15709 40.007 12.8634 40.007V50.9081L2.18015 50.9084ZM2.18015 80.56V53.0887H23.7645V80.56H2.18015ZM40.7699 74.7819V68.5683H46.8747L40.7699 74.7819ZM12.8631 37.8264C10.4647 37.8264 8.3935 35.8641 8.3935 33.3567C8.3935 30.9583 10.3557 28.9964 12.8631 28.9964C13.626 28.9964 14.1716 28.2336 13.8443 27.5792C9.70188 16.242 26.3804 10.0278 30.9589 20.7116C31.2861 21.4745 32.3761 21.5839 32.9212 20.8205C38.1537 12.4268 51.2357 17.9861 48.7278 27.6881C48.51 28.342 49.0551 28.9965 49.709 29.1053C52.5435 29.3232 53.7426 31.5038 53.7426 33.575C53.7426 35.319 52.7614 37.0634 50.7991 37.7174V34.7739C50.7991 33.03 49.3819 31.7216 47.7467 31.7216L15.9149 31.7221C14.171 31.7221 12.8625 33.1393 12.8625 34.7744L12.8631 37.8264ZM15.0433 38.9169V34.6656C15.0433 34.2295 15.4794 33.7933 15.9155 33.7933H47.5289C47.9651 33.7933 48.4012 34.2295 48.4012 34.6656V66.4974H39.5713C38.9173 66.4974 38.4812 66.9335 38.4812 67.5875V76.4174H25.944V53.0883C25.944 51.8893 24.9629 50.9081 23.7639 50.9081H15.0429L15.0433 38.9169Z" fill="#333333"/>
<path d="M19.9486 56.3584H6.10374C5.44981 56.3584 5.01367 56.7945 5.01367 57.4485V63.3348C5.01367 63.9888 5.44979 64.4249 6.10374 64.4249H19.9486C20.6025 64.4249 21.0386 63.9888 21.0386 63.3348V57.4485C21.0386 56.794 20.4936 56.3584 19.9486 56.3584ZM18.858 62.2448H7.19409V58.5384H18.8585L18.858 62.2448Z" fill="#333333"/>
<path d="M9.59199 68.1318H7.41184C6.75791 68.1318 6.32178 68.568 6.32178 69.2219C6.32178 69.8758 6.7579 70.312 7.41184 70.312H9.59199C10.2459 70.312 10.6821 69.8758 10.6821 69.2219C10.6821 68.6774 10.2464 68.1318 9.59199 68.1318Z" fill="#333333"/>
<path d="M18.5314 68.1318H16.3513C15.6974 68.1318 15.2612 68.568 15.2612 69.2219C15.2612 69.8758 15.6974 70.312 16.3513 70.312H18.5314C19.1854 70.312 19.6215 69.8758 19.6215 69.2219C19.6215 68.6774 19.1854 68.1318 18.5314 68.1318Z" fill="#333333"/>
<path d="M9.59199 75.1084H7.41184C6.75791 75.1084 6.32178 75.5445 6.32178 76.1985C6.32178 76.8524 6.7579 77.2885 7.41184 77.2885H9.59199C10.2459 77.2885 10.6821 76.8524 10.6821 76.1985C10.6821 75.5445 10.2464 75.1084 9.59199 75.1084Z" fill="#333333"/>
<path d="M18.5314 75.1084H16.3513C15.6974 75.1084 15.2612 75.5445 15.2612 76.1985C15.2612 76.8524 15.6974 77.2885 16.3513 77.2885H18.5314C19.1854 77.2885 19.6215 76.8524 19.6215 76.1985C19.6215 75.5445 19.1854 75.1084 18.5314 75.1084Z" fill="#333333"/>
<path d="M20.0581 39.2441H22.2383V41.4243H20.0581V39.2441Z" fill="#333333"/>
<path d="M27.1436 39.2441H29.3237V41.4243H27.1436V39.2441Z" fill="#333333"/>
<path d="M34.229 39.2441H36.4092V41.4243H34.229V39.2441Z" fill="#333333"/>
<path d="M41.3145 39.2441H43.4946V41.4243H41.3145V39.2441Z" fill="#333333"/>
<path d="M43.495 46.8742C43.495 46.2203 43.0589 45.7842 42.4049 45.7842H21.1482C20.4942 45.7842 20.0581 46.2203 20.0581 46.8742C20.0581 47.5282 20.4942 47.9643 21.1482 47.9643H42.4049C43.0589 47.9643 43.495 47.5282 43.495 46.8742Z" fill="#333333"/>
<path d="M42.4055 52.3252H32.2673C31.6134 52.3252 31.1772 52.7613 31.1772 53.4153C31.1772 54.0692 31.6134 54.5053 32.2673 54.5053H42.4055C43.0595 54.5053 43.4956 54.0692 43.4956 53.4153C43.4956 52.7613 43.0595 52.3252 42.4055 52.3252Z" fill="#333333"/>
<path d="M42.4055 58.8662H32.2673C31.6134 58.8662 31.1772 59.3023 31.1772 59.9563C31.1772 60.6102 31.6134 61.0463 32.2673 61.0463H42.4055C43.0595 61.0463 43.4956 60.6102 43.4956 59.9563C43.4956 59.3023 43.0595 58.8662 42.4055 58.8662Z" fill="#333333"/>
<path d="M17.55 25.0723H17.7678C18.3129 25.0723 18.749 24.7451 18.8579 24.2C19.4029 21.2566 22.8915 20.1665 25.1805 21.9111C25.6166 22.2383 26.3794 22.1289 26.7066 21.6933C27.0339 21.2571 26.9245 20.4943 26.4888 20.1671C22.8914 17.4419 17.5501 19.4042 16.6778 23.8734C16.5689 24.4179 16.8962 24.963 17.5501 25.0724L17.55 25.0723Z" fill="#333333"/>
</svg>
